<?xml version="1.0" encoding="UTF-8"?>
<svg width="44px" height="44px" viewBox="0 0 44 44" version="1.1" xmlns="http://www.w3.org/2000/svg" xmlns:xlink="http://www.w3.org/1999/xlink">
    <!-- Generator: Sketch 51.2 (57519) - http://www.bohemiancoding.com/sketch -->
    <title>赞赏icon</title>
    <desc>Created with Sketch.</desc>
    <defs></defs>
    <g id="Symbols" stroke="none" stroke-width="1" fill="none" fill-rule="evenodd">
        <g id="底部信息" transform="translate(-1352.000000, -30.000000)" fill="#CCCCCC">
            <g id="右侧icon">
                <g transform="translate(1067.000000, 30.000000)">
                    <g id="赞赏" transform="translate(285.000000, 0.000000)">
                        <path d="M13,33 L14,33 C17.866,33 21,30.761 21,28 L21,26 L15,26 L15,31 C15,31.552 14.552,32 14,32 C13.448,32 13,31.552 13,31 L13,25 C13,24.448 13.448,24 14,24 L30,24 C30.552,24 31,24.448 31,25 L31,31 C31,31.552 30.552,32 30,32 C29.448,32 29,31.552 29,31 L29,26 L23,26 L23,29 C23,29.109 22.97,29.208 22.938,29.307 L31.282,33.098 C31.83,33.266 32.127,33.818 31.947,34.33 C31.767,34.842 31.177,35.12 30.63,34.951 L22.058,31.056 C20.793,33.064 18.354,34.544 15.413,34.905 C15.287,34.963 15.149,35 15,35 L13,35 C12.448,35 12,34.552 12,34 C12,33.448 12.448,33 13,33 Z M17,21 L27,21 L27,19 L17,19 L17,21 Z M17,23 C15.896,23 15,22.105 15,21 L15,19 C15,17.895 15.896,17 17,17 L27,17 C28.105,17 29,17.895 29,19 L29,21 C29,22.105 28.105,23 27,23 L17,23 Z M31,21 C30.448,21 30,20.552 30,20 L30,16 L14,16 L14,20 C14,20.552 13.552,21 13,21 C12.448,21 12,20.552 12,20 L12,15 C12,14.448 12.448,14 13,14 L16.535,14 L15.252,12.622 C14.863,12.204 14.923,11.581 15.387,11.23 C15.85,10.88 16.542,10.934 16.931,11.352 L19.396,14 L21,14 L21,11 C21,10.448 21.448,10 22,10 C22.552,10 23,10.448 23,11 L23,14 L24.604,14 L27.069,11.352 C27.458,10.934 28.15,10.88 28.613,11.23 C29.077,11.581 29.137,12.204 28.748,12.622 L27.465,14 L31,14 C31.552,14 32,14.448 32,15 L32,20 C32,20.552 31.552,21 31,21 Z M22,2 C10.954,2 2,10.954 2,22 C2,33.046 10.954,42 22,42 C33.046,42 42,33.046 42,22 C42,10.954 33.046,2 22,2 Z M22,44 C9.85,44 0,34.15 0,22 C0,9.85 9.85,0 22,0 C34.15,0 44,9.85 44,22 C44,34.15 34.15,44 22,44 Z" id="赞赏icon"></path>
                    </g>
                </g>
            </g>
        </g>
    </g>
</svg>