<?xml version="1.0" encoding="UTF-8"?>
<svg width="44px" height="44px" viewBox="0 0 44 44" version="1.1" xmlns="http://www.w3.org/2000/svg" xmlns:xlink="http://www.w3.org/1999/xlink">
    <!-- Generator: Sketch 51.2 (57519) - http://www.bohemiancoding.com/sketch -->
    <title>Fill 1</title>
    <desc>Created with Sketch.</desc>
    <defs></defs>
    <g id="Symbols" stroke="none" stroke-width="1" fill="none" fill-rule="evenodd">
        <g id="底部信息" transform="translate(-1446.000000, -30.000000)" fill="#CCCCCC">
            <g id="右侧icon">
                <g transform="translate(1067.000000, 30.000000)">
                    <g id="Group" transform="translate(379.000000, 0.000000)">
                        <path d="M8,31 L11,31 L11,28 L8,28 L8,31 Z M34,31 L37,31 L37,28 L34,28 L34,31 Z M8,24 L11,24 L11,21 L8,21 L8,24 Z M34,24 L37,24 L37,21 L34,21 L34,24 Z M19,26 L19,18 L26,22 L19,26 Z M17.9992936,15 C17.4787035,15 17,15.4175966 17,16.0034335 L17,27.9965665 C17,28.5824034 17.4787035,29 17.9992936,29 C18.1698317,29 18.344359,28.9549356 18.5089134,28.8567954 L28.5138167,22.8602289 C29.1620611,22.4716738 29.1620611,21.5283262 28.5138167,21.1407725 L18.5089134,15.1432046 C18.344359,15.0450644 18.1698317,15 17.9992936,15 Z M8,17 L11,17 L11,14 L8,14 L8,17 Z M34,17 L37,17 L37,14 L34,14 L34,17 Z M22,42 C10.972,42 2,33.028 2,22 C2,10.972 10.972,2 22,2 C33.028,2 42,10.972 42,22 C42,33.028 33.028,42 22,42 Z M22,0 C9.85,0 0,9.85 0,22 C0,34.15 9.85,44 22,44 C34.15,44 44,34.15 44,22 C44,9.85 34.15,0 22,0 Z" id="Fill-1"></path>
                    </g>
                </g>
            </g>
        </g>
    </g>
</svg>