<?xml version="1.0" encoding="UTF-8"?>
<svg width="44px" height="44px" viewBox="0 0 44 44" version="1.1" xmlns="http://www.w3.org/2000/svg" xmlns:xlink="http://www.w3.org/1999/xlink">
    <!-- Generator: Sketch 51.2 (57519) - http://www.bohemiancoding.com/sketch -->
    <title>独立音乐人icon</title>
    <desc>Created with Sketch.</desc>
    <defs></defs>
    <g id="Symbols" stroke="none" stroke-width="1" fill="none" fill-rule="evenodd">
        <g id="底部信息" transform="translate(-1070.000000, -30.000000)" fill="#CCCCCC">
            <g id="右侧icon">
                <g transform="translate(1067.000000, 30.000000)">
                    <g id="独立音乐人">
                        <g id="独立音乐人icon" transform="translate(3.000000, 0.000000)">
                            <path d="M22,42.0001 C10.954,42.0001 2,33.0461 2,22.0001 C2,10.9541 10.954,2.0001 22,2.0001 C33.046,2.0001 42,10.9541 42,22.0001 C42,33.0461 33.046,42.0001 22,42.0001 M22,0.0001 C9.85,0.0001 0,9.8501 0,22.0001 C0,34.1501 9.85,44.0001 22,44.0001 C34.15,44.0001 44,34.1501 44,22.0001 C44,9.8501 34.15,0.0001 22,0.0001" id="Fill-1"></path>
                            <path d="M22,25.0001 C20.343,25.0001 19,23.6571 19,22.0001 C19,20.3431 20.343,19.0001 22,19.0001 C23.657,19.0001 25,20.3431 25,22.0001 C25,23.6571 23.657,25.0001 22,25.0001 M22,17.0001 C19.239,17.0001 17,19.2391 17,22.0001 C17,24.7611 19.239,27.0001 22,27.0001 C24.761,27.0001 27,24.7611 27,22.0001 C27,19.2391 24.761,17.0001 22,17.0001" id="Fill-3"></path>
                            <path d="M22,36 C14.28,36 8,29.72 8,22 C8,21.448 7.552,21 7,21 C6.448,21 6,21.448 6,22 C6,30.822 13.178,38 22,38 C22.552,38 23,37.552 23,37 C23,36.448 22.552,36 22,36" id="Fill-5"></path>
                            <path d="M22,6 C21.448,6 21,6.448 21,7 C21,7.552 21.448,8 22,8 C29.72,8 36,14.28 36,22 C36,22.552 36.448,23 37,23 C37.552,23 38,22.552 38,22 C38,13.178 30.822,6 22,6" id="Fill-7"></path>
                        </g>
                    </g>
                </g>
            </g>
        </g>
    </g>
</svg>