<?xml version="1.0" encoding="UTF-8"?>
<svg width="44px" height="44px" viewBox="0 0 44 44" version="1.1" xmlns="http://www.w3.org/2000/svg" xmlns:xlink="http://www.w3.org/1999/xlink">
    <!-- Generator: Sketch 50.2 (55047) - http://www.bohemiancoding.com/sketch -->
    <title>底部-用户认证</title>
    <desc>Created with Sketch.</desc>
    <defs></defs>
    <g id="Page-1" stroke="none" stroke-width="1" fill="none" fill-rule="evenodd">
        <g id="06-icon" transform="translate(-1009.000000, -2854.000000)" fill="#CCCCCC">
            <g id="底部-用户认证" transform="translate(1009.000000, 2854.000000)">
                <path d="M22,0.0001 C34.15,0.0001 44,9.8501 44,22.0001 C44,34.1501 34.15,44.0001 22,44.0001 C9.85,44.0001 0,34.1501 0,22.0001 C0,9.8501 9.85,0.0001 22,0.0001 Z M22,42.0001 C33.046,42.0001 42,33.0461 42,22.0001 C42,10.9541 33.046,2.0001 22,2.0001 C10.954,2.0001 2,10.9541 2,22.0001 C2,33.0461 10.954,42.0001 22,42.0001 Z M22.001,9 C22.181,9 22.361,9.059 22.509,9.177 L24.294,10.586 C26.008,11.939 28.391,12.714 30.834,12.714 C31.574,12.714 32.312,12.645 33.032,12.506 C33.084,12.496 33.137,12.49 33.189,12.49 C33.376,12.49 33.558,12.555 33.704,12.674 C33.891,12.826 34,13.052 34,13.291 L34,25.062 C34,28.541 31.654,31.754 27.876,33.445 L22.334,35.928 C22.232,35.977 22.118,36 22.003,36 C21.888,36 21.773,35.977 21.666,35.928 L16.124,33.445 C12.346,31.754 10,28.541 10,25.062 L10,13.291 C10,13.052 10.109,12.826 10.296,12.674 C10.443,12.555 10.626,12.491 10.813,12.491 C10.865,12.491 10.917,12.496 10.968,12.506 C11.688,12.645 12.427,12.714 13.166,12.714 C15.609,12.714 17.992,11.938 19.707,10.586 L21.491,9.177 C21.641,9.059 21.821,9 22.001,9 Z M22.001,11.323 L20.946,12.155 C18.883,13.781 16.048,14.714 13.166,14.714 C12.776,14.714 12.386,14.697 12,14.665 L12,25.062 C12,27.743 13.894,30.256 16.941,31.62 L22,33.886 L27.059,31.62 C30.107,30.256 32,27.743 32,25.062 L32,14.664 C31.613,14.697 31.224,14.714 30.834,14.714 C27.949,14.714 25.113,13.781 23.055,12.155 L22.001,11.323 Z M28.70725,18.29325 C29.09825,18.68425 29.09825,19.31625 28.70725,19.70725 L21.70725,26.70725 C21.51225,26.90225 21.25625,27.00025 21.00025,27.00025 C20.74425,27.00025 20.48825,26.90225 20.29325,26.70725 L16.29325,22.70725 C15.90225,22.31625 15.90225,21.68425 16.29325,21.29325 C16.68425,20.90225 17.31625,20.90225 17.70725,21.29325 L21.00025,24.58625 L27.29325,18.29325 C27.68425,17.90225 28.31625,17.90225 28.70725,18.29325 Z" id="Combined-Shape"></path>
            </g>
        </g>
    </g>
</svg>